<svg width="89" height="70" viewBox="0 0 89 70" fill="none" xmlns="http://www.w3.org/2000/svg">
<path d="M20.28 69.16C16.2933 69.16 12.8267 68.12 9.88 66.04C6.93333 63.7867 4.68 60.7533 3.12 56.94C1.56 53.1267 0.780001 48.7933 0.780001 43.94C0.780001 38.0467 1.73333 32.4133 3.64 27.04C5.72 21.4933 8.84 16.38 13 11.7C17.16 7.01999 22.5333 3.11999 29.12 -1.23978e-05L40.04 10.14C35.36 11.7 31.2 13.8667 27.56 16.64C24.0933 19.4133 21.2333 22.5333 18.98 26C16.9 29.4667 15.4267 33.02 14.56 36.66L15.6 37.18C16.2933 36.66 17.16 36.2267 18.2 35.88C19.24 35.5333 20.8 35.36 22.88 35.36C24.96 35.36 27.1267 35.9667 29.38 37.18C31.6333 38.3933 33.4533 40.2133 34.84 42.64C36.4 44.8933 37.18 47.9267 37.18 51.74C37.18 54.86 36.4 57.72 34.84 60.32C33.4533 62.92 31.46 65.0867 28.86 66.82C26.26 68.38 23.4 69.16 20.28 69.16ZM69.16 69.16C65.1733 69.16 61.7067 68.12 58.76 66.04C55.8133 63.7867 53.56 60.7533 52 56.94C50.44 53.1267 49.66 48.7933 49.66 43.94C49.66 38.0467 50.6133 32.4133 52.52 27.04C54.6 21.4933 57.72 16.38 61.88 11.7C66.04 7.01999 71.4133 3.11999 78 -1.23978e-05L88.92 10.14C84.24 11.7 80.08 13.8667 76.44 16.64C72.9733 19.4133 70.1133 22.5333 67.86 26C65.78 29.4667 64.3067 33.02 63.44 36.66L64.48 37.18C65.1733 36.66 66.04 36.2267 67.08 35.88C68.12 35.5333 69.68 35.36 71.76 35.36C73.84 35.36 76.0067 35.9667 78.26 37.18C80.5133 38.3933 82.3333 40.2133 83.72 42.64C85.28 44.8933 86.06 47.9267 86.06 51.74C86.06 54.86 85.28 57.72 83.72 60.32C82.3333 62.92 80.34 65.0867 77.74 66.82C75.14 68.38 72.28 69.16 69.16 69.16Z" fill="#1AA090"/>
</svg>
